<svg width="348" height="187" viewBox="0 0 348 187" fill="none" xmlns="http://www.w3.org/2000/svg">
<g clip-path="url(#clip0_1_56)">
<path d="M69.8558 132.616C68.8303 132.617 67.8472 133.083 67.1221 133.912C66.397 134.74 65.9891 135.864 65.988 137.035V147.373C65.9891 148.545 66.397 149.668 67.1221 150.497C67.8472 151.325 68.8303 151.791 69.8558 151.792H74.7617C75.7872 151.791 76.7703 151.325 77.4955 150.497C78.2206 149.668 78.6284 148.545 78.6296 147.373V137.035C78.6284 135.864 78.2206 134.74 77.4955 133.912C76.7703 133.083 75.7872 132.617 74.7617 132.616H69.8558Z" fill="#3F3D56"/>
<path d="M160.544 152.136H155.638C154.533 152.135 153.473 151.632 152.692 150.74C151.91 149.847 151.471 148.636 151.469 147.373V137.035C151.471 135.772 151.91 134.562 152.692 133.669C153.473 132.776 154.533 132.274 155.638 132.272H160.544C161.649 132.274 162.709 132.776 163.49 133.669C164.272 134.562 164.712 135.772 164.713 137.035V147.373C164.712 148.636 164.272 149.847 163.49 150.74C162.709 151.632 161.649 152.135 160.544 152.136Z" fill="#3F3D56"/>
<path d="M157.289 143.859H72.81C68.9653 143.859 65.8375 141.269 65.8375 138.086V119.527L70.0306 114.482H160.884L164.261 119.538V138.086C164.261 141.269 161.134 143.859 157.289 143.859Z" fill="#CCCCCC"/>
<path d="M160.49 123.767H70.5123L69.598 107.748L70.1798 106.109L73.562 96.6006H156.831L161.404 107.398L160.49 123.767Z" fill="#CCCCCC"/>
<path d="M161.251 107.433L160.58 119.468H140.784V110.527L160.688 106.105L161.251 107.433Z" fill="white"/>
<path d="M89.9169 110.527V119.468H70.4185L69.7502 107.776L70.3193 106.174L89.9169 110.527Z" fill="white"/>
<path d="M156.329 99.3516H74.0629L82.8372 65.9371C83.1951 64.5571 83.932 63.3452 84.9392 62.4805C85.9463 61.6159 87.1703 61.1444 88.4301 61.1356L142.912 60.5428C144.229 60.5282 145.511 61.0173 146.556 61.9322C147.601 62.8472 148.348 64.1353 148.678 65.5914L156.329 99.3516Z" fill="#CCCCCC"/>
<path d="M149.996 96.192L80.3825 95.2489C80.2945 95.2477 80.208 95.223 80.1299 95.1766C80.0518 95.1303 79.9843 95.0636 79.9329 94.982C79.8814 94.9004 79.8474 94.8062 79.8336 94.7069C79.8199 94.6076 79.8267 94.5059 79.8536 94.4102L86.5271 70.6222C86.5635 70.4926 86.635 70.3795 86.7312 70.2992C86.8275 70.219 86.9436 70.1758 87.0628 70.1758H143.054C143.173 70.1758 143.29 70.219 143.386 70.2992C143.482 70.3794 143.554 70.4924 143.59 70.622L150.538 95.353C150.566 95.45 150.572 95.553 150.558 95.6535C150.543 95.754 150.508 95.8492 150.455 95.9311C150.402 96.0131 150.333 96.0795 150.253 96.1248C150.173 96.1702 150.085 96.1932 149.996 96.192Z" fill="white"/>
<path d="M124.578 64.6204H105.814C105.656 64.6204 105.513 64.4426 105.44 64.1561C105.367 63.8629 105.378 63.5509 105.47 63.2649L107.017 58.7945C107.096 58.5667 107.225 58.4307 107.362 58.4307H123.03C123.167 58.4307 123.296 58.5667 123.375 58.7945L124.922 63.2649C125.014 63.5509 125.025 63.8629 124.952 64.1561C124.879 64.4426 124.736 64.6204 124.578 64.6204Z" fill="#54BAB9"/>
<path d="M74.1147 98.6638H61.7741V95.5649C61.7751 94.5632 62.1239 93.6027 62.7439 92.8943C63.3639 92.1859 64.2046 91.7875 65.0815 91.7864H74.1147V98.6638Z" fill="#CCCCCC"/>
<path d="M168.626 98.6638H156.285V91.7864H165.318C166.195 91.7875 167.036 92.1859 167.656 92.8943C168.276 93.6027 168.625 94.5632 168.626 95.5649V98.6638Z" fill="#CCCCCC"/>
<path d="M60.3304 146.971L0.000366211 171.732L0.256471 172.546L60.5865 147.786L60.3304 146.971Z" fill="#3F3D56"/>
<path d="M169.689 146.973L169.433 147.788L229.765 172.542L230.021 171.727L169.689 146.973Z" fill="#3F3D56"/>
<path d="M118.552 164.926H114.941V159.597H118.552V164.926ZM118.552 154.268H114.941V148.94H118.552V154.268Z" fill="#E6E6E6"/>
<path d="M118.552 187H114.941V181.671H118.552V187ZM118.552 176.342H114.941V171.013H118.552V176.342Z" fill="#E6E6E6"/>
<path d="M277.223 168.592H273.246L271.353 151.066H277.223V168.592Z" fill="#FFB8B8"/>
<path d="M278.237 172.997H265.413V172.812C265.414 171.3 265.941 169.85 266.877 168.781C267.812 167.712 269.081 167.111 270.405 167.109H278.237L278.237 172.997Z" fill="#2F2E41"/>
<path d="M328.51 159.982L325.101 162.323L315.578 148.413L320.609 144.959L328.51 159.982Z" fill="#FFB8B8"/>
<path d="M320.373 170.707L320.289 170.548C319.609 169.251 319.407 167.699 319.727 166.232C320.047 164.765 320.864 163.503 321.997 162.722L328.711 158.114L331.365 163.161L320.373 170.707Z" fill="#2F2E41"/>
<path d="M278.257 164.976L278.188 164.975C276.253 164.968 274.32 164.841 272.398 164.594C271.665 164.512 270.87 164.422 269.912 164.332L269.879 164.325C269.226 164.103 269.208 157.101 269.485 133.134C269.627 120.858 269.787 106.944 269.596 98.0833L269.594 97.9962L269.652 97.9389C276.746 90.8889 285.858 88.2462 295.307 90.4977L295.377 90.5143L295.413 90.5847C299.322 98.1408 305.224 109.025 310.932 119.551C324.034 143.713 327.781 150.819 327.37 151.355L327.321 151.399C326.426 151.91 325.754 152.304 325.183 152.638C323.271 153.759 322.479 154.222 318.226 156.223L318.121 156.272L318.045 156.177C304.751 139.534 293.688 120.943 286.845 103.757C286.045 109.624 285.075 117.285 284.049 125.38C281.1 148.658 279.107 163.986 278.305 164.92L278.257 164.976Z" fill="#2F2E41"/>
<path d="M298.905 23.7631C300.244 17.4474 301.378 10.324 298.853 4.50715C297.101 0.471151 290.62 -0.887995 286.905 0.566016C283.19 2.02003 280.503 5.96487 279.322 10.266C278.141 14.5671 278.278 19.2019 278.793 23.6732C285.626 23.5232 292.459 23.3733 298.905 23.7631Z" fill="#2F2E41"/>
<path d="M287.374 23.7614C291.775 23.7614 295.342 19.6858 295.342 14.6583C295.342 9.63084 291.775 5.55527 287.374 5.55527C282.974 5.55527 279.406 9.63084 279.406 14.6583C279.406 19.6858 282.974 23.7614 287.374 23.7614Z" fill="#FFB8B8"/>
<path d="M297.115 12.7831C297.14 11.2511 296.896 9.72879 296.396 8.3068C295.896 6.8848 295.151 5.59209 294.206 4.50547C293.26 3.41886 292.133 2.5605 290.891 1.98142C289.649 1.40234 288.318 1.11434 286.977 1.13454C285.636 1.15474 284.312 1.48272 283.084 2.099C281.856 2.71529 280.749 3.60729 279.828 4.72201C278.908 5.83673 278.193 7.15143 277.727 8.58798C277.26 10.0245 277.051 11.5536 277.111 13.0844C283.931 13.101 290.751 13.1175 297.115 12.7831Z" fill="#2F2E41"/>
<path d="M281.839 99.8738C289.766 99.8334 297.641 101.34 305.124 104.328C305.384 89.9785 301.06 75.6026 293.242 64.848L293.183 64.7677L293.213 64.6691C295.302 57.7753 297.46 50.6498 299.389 43.5595L299.36 43.4404C298.007 37.9463 295.103 32.3944 290.484 26.4673C289.982 25.8741 289.303 25.5208 288.582 25.4791C287.861 25.4374 287.153 25.7104 286.602 26.2427C278.391 34.8432 273.925 47.7294 274.95 59.873L274.953 59.9086L274.944 59.9432C271.326 73.9451 270.013 81.1369 268.854 87.4822C268.009 92.1109 267.277 96.1188 265.808 101.845C271.075 100.536 276.449 99.8753 281.839 99.8738Z" fill="#3F3D56"/>
<path opacity="0.1" d="M293.51 55.6113L281.741 84.8824L275.018 77.1077L293.51 55.6113Z" fill="black"/>
<path d="M267.094 71.8697L267.915 73.6912C267.922 73.708 267.924 73.7276 267.919 73.7456C267.914 73.7637 267.902 73.7787 267.888 73.7874L267.848 73.8106L272.123 83.2993C272.241 83.5619 272.263 83.8674 272.184 84.1486C272.105 84.4298 271.932 84.6638 271.702 84.7989L266.512 87.8503C266.399 87.9172 266.274 87.9578 266.147 87.9699C266.019 87.9819 265.891 87.9651 265.769 87.9205C265.647 87.8759 265.534 87.8043 265.437 87.7098C265.339 87.6153 265.259 87.4997 265.2 87.3697L261.076 78.2137L261.047 78.2306C261.037 78.2367 261.024 78.2379 261.013 78.2339C261.002 78.2298 260.993 78.2209 260.988 78.2091L260.521 77.1724C260.518 77.1665 260.516 77.1601 260.516 77.1535C260.515 77.1469 260.516 77.1402 260.518 77.1339C260.52 77.1276 260.522 77.1217 260.526 77.1166C260.53 77.1116 260.534 77.1074 260.54 77.1044L260.568 77.0875L260.392 76.6971L260.363 76.714C260.353 76.7204 260.34 76.7216 260.328 76.7173C260.316 76.7129 260.307 76.7035 260.301 76.691L259.841 75.6685C259.835 75.6561 259.834 75.6416 259.838 75.6283C259.841 75.615 259.85 75.604 259.861 75.5975L259.889 75.5805L259.649 75.0475L259.62 75.0648C259.61 75.0705 259.599 75.0716 259.589 75.0678C259.578 75.064 259.57 75.0557 259.565 75.0447L259.313 74.4866C259.308 74.4756 259.307 74.4627 259.311 74.4508C259.314 74.439 259.321 74.4291 259.331 74.4233L259.36 74.4061L258.851 73.2762C258.733 73.0137 258.711 72.7083 258.79 72.4272C258.869 72.146 259.042 71.9122 259.272 71.7771L264.461 68.7257C264.691 68.5906 264.959 68.5653 265.205 68.6553C265.451 68.7454 265.656 68.9434 265.774 69.2059L266.97 71.8622L267.01 71.8389C267.025 71.8303 267.042 71.8287 267.058 71.8344C267.073 71.8402 267.087 71.8529 267.094 71.8697Z" fill="#3F3D56"/>
<path d="M265.447 69.6457L271.745 83.6254C271.82 83.792 271.834 83.9858 271.784 84.1641C271.733 84.3425 271.623 84.4908 271.478 84.5765L266.51 87.4974C266.365 87.5833 266.195 87.5997 266.039 87.5429C265.883 87.4862 265.753 87.3609 265.678 87.1948L265.677 87.1929L259.38 73.2132C259.343 73.1307 259.32 73.0407 259.313 72.9482C259.307 72.8558 259.316 72.7627 259.341 72.6744C259.366 72.586 259.405 72.5041 259.458 72.4333C259.51 72.3625 259.574 72.3042 259.647 72.2618L260.39 71.8246L260.439 71.9336C260.47 72.0015 260.512 72.0619 260.563 72.1113C260.614 72.1606 260.673 72.198 260.737 72.2214C260.8 72.2447 260.867 72.2534 260.934 72.2471C261.001 72.2408 261.066 72.2196 261.125 72.1846L263.651 70.6991C263.772 70.6285 263.862 70.5063 263.903 70.3594C263.945 70.2125 263.933 70.0529 263.871 69.9157L263.822 69.8067L264.614 69.3409C264.76 69.2551 264.93 69.239 265.086 69.2961C265.242 69.3532 265.372 69.4788 265.447 69.6453L265.447 69.6457Z" fill="#54BAB9"/>
<path d="M267.272 86.7246C267.748 86.6868 268.211 86.5302 268.628 86.266C269.045 86.0018 269.406 85.6363 269.686 85.1953C269.966 84.7542 270.158 84.2484 270.249 83.7135C270.339 83.1785 270.326 82.6274 270.21 82.0989L279.907 74.8406L274.377 72.1111L266.016 79.4222C265.252 79.704 264.605 80.2962 264.197 81.0866C263.79 81.877 263.65 82.8108 263.805 83.7109C263.96 84.611 264.399 85.4149 265.038 85.9704C265.677 86.5258 266.472 86.7942 267.272 86.7246Z" fill="#FFB8B8"/>
<path d="M276.603 81.4956L276.481 81.3968C274.173 79.4562 271.611 77.4495 269.133 75.5087L268.984 75.3922L269.102 75.2355C274.39 68.1667 279.684 60.7832 284.804 53.6407C284.801 53.6293 284.797 53.6209 284.795 53.615L284.843 53.5869L284.863 53.5585L284.874 53.5688L284.905 53.5509L284.766 53.5632L283.187 39.4228C281.762 37.201 281.489 32.7899 283.357 29.7106C285.292 26.5208 289.386 25.4533 292.118 27.4251C292.834 27.9741 293.433 28.7 293.87 29.549C294.307 30.3981 294.571 31.3485 294.643 32.33C294.744 33.2044 294.673 34.0937 294.436 34.9329C294.198 35.7721 293.799 36.54 293.268 37.1806C293.939 44.6639 293.965 51.3528 293.99 57.8229L293.99 57.8875L293.955 57.9407C288.496 65.864 282.5 73.7451 276.701 81.3668L276.603 81.4956Z" fill="#3F3D56"/>
<path d="M115.091 42.8929C124.986 42.8929 133.007 33.729 133.007 22.4248C133.007 11.1207 124.986 1.9568 115.091 1.9568C105.197 1.9568 97.1755 11.1207 97.1755 22.4248C97.1755 33.729 105.197 42.8929 115.091 42.8929Z" fill="#54BAB9"/>
<path d="M113.384 31.0648L108.022 23.1879L111.14 20.417L113.679 24.1466L122.256 13.8022L125.124 16.9068L113.384 31.0648Z" fill="white"/>
<path d="M347.621 173.561H257.077C256.977 173.561 256.88 173.515 256.809 173.434C256.738 173.353 256.698 173.243 256.698 173.128C256.698 173.013 256.738 172.903 256.809 172.822C256.88 172.741 256.977 172.695 257.077 172.695H347.621C347.722 172.695 347.818 172.741 347.889 172.822C347.96 172.903 348 173.013 348 173.128C348 173.243 347.96 173.353 347.889 173.434C347.818 173.515 347.722 173.561 347.621 173.561Z" fill="#3F3D56"/>
</g>
<defs>
<clipPath id="clip0_1_56">
<rect width="348" height="187" fill="white"/>
</clipPath>
</defs>
</svg>
